<mxfile host="drawio-plugin" modified="2022-05-19T18:46:28.334Z" agent="5.0 (Windows NT 6.2; Win64; x64) AppleWebKit/537.36 (KHTML, like Gecko) Chrome/97.0.4692.45 Safari/537.36" version="15.5.4" etag="Jd5cvFhextoEcQ7qT93D" type="embed"><diagram id="-C1P8tgpQqFdWLGUZ4AF" name="Page-1"><mxGraphModel dx="2218" dy="340" grid="1" gridSize="10" guides="1" tooltips="1" connect="1" arrows="1" fold="1" page="1" pageScale="1" pageWidth="1654" pageHeight="2336" background="#ffffff" math="0" shadow="0"><root><mxCell id="0"/><mxCell id="1" parent="0"/><mxCell id="2" value="&lt;h1&gt;Redux&lt;/h1&gt;" style="rounded=0;whiteSpace=wrap;html=1;fillColor=none;strokeWidth=3;strokeColor=#000000;fontColor=#000000;" vertex="1" parent="1"><mxGeometry x="-725" y="50" width="150" height="60" as="geometry"/></mxCell><mxCell id="6" value="&lt;h2&gt;API&lt;/h2&gt;" style="rounded=0;whiteSpace=wrap;html=1;fontFamily=Verdana;fontSize=12;fontColor=#000000;strokeColor=#000000;strokeWidth=3;fillColor=none;" vertex="1" parent="1"><mxGeometry x="235" y="50" width="120" height="60" as="geometry"/></mxCell><mxCell id="7" value="ASSETS" style="rounded=0;whiteSpace=wrap;html=1;fontFamily=Verdana;fontSize=12;fontColor=#000000;strokeColor=#000000;strokeWidth=3;fillColor=none;" vertex="1" parent="1"><mxGeometry x="-178" y="50" width="120" height="60" as="geometry"/></mxCell><mxCell id="8" value="&lt;h2&gt;HOOKS&lt;/h2&gt;" style="rounded=0;whiteSpace=wrap;html=1;fontFamily=Verdana;fontSize=12;fontColor=#000000;strokeColor=#000000;strokeWidth=3;fillColor=none;" vertex="1" parent="1"><mxGeometry x="55" y="50" width="120" height="60" as="geometry"/></mxCell><mxCell id="9" value="&lt;h2&gt;REACT&lt;/h2&gt;" style="rounded=0;whiteSpace=wrap;html=1;fontFamily=Verdana;fontSize=12;fontColor=#000000;strokeColor=#000000;strokeWidth=3;fillColor=none;" vertex="1" parent="1"><mxGeometry x="-435" y="50" width="120" height="60" as="geometry"/></mxCell><mxCell id="10" value="&lt;h3&gt;index.js&lt;/h3&gt;" style="rounded=1;whiteSpace=wrap;html=1;fontFamily=Verdana;fontSize=12;fontColor=#000000;strokeColor=#000000;strokeWidth=3;fillColor=none;" vertex="1" parent="1"><mxGeometry x="-495" y="130" width="120" height="30" as="geometry"/></mxCell><mxCell id="12" value="" style="endArrow=classic;html=1;rounded=0;fontFamily=Verdana;fontSize=12;fontColor=#000000;strokeColor=#000000;exitX=0.25;exitY=1;exitDx=0;exitDy=0;" edge="1" parent="1" source="9"><mxGeometry width="50" height="50" relative="1" as="geometry"><mxPoint x="-495" y="180" as="sourcePoint"/><mxPoint x="-445" y="130" as="targetPoint"/></mxGeometry></mxCell><mxCell id="13" value="&lt;h3&gt;store.js&lt;/h3&gt;" style="rounded=1;whiteSpace=wrap;html=1;fontFamily=Verdana;fontSize=12;fontColor=#000000;strokeColor=#000000;strokeWidth=3;fillColor=none;" vertex="1" parent="1"><mxGeometry x="-715" y="210" width="120" height="30" as="geometry"/></mxCell><mxCell id="16" value="" style="endArrow=classic;html=1;rounded=0;fontFamily=Verdana;fontSize=12;fontColor=#000000;strokeColor=#000000;entryX=0.5;entryY=0;entryDx=0;entryDy=0;" edge="1" parent="1" target="13"><mxGeometry width="50" height="50" relative="1" as="geometry"><mxPoint x="-655" y="110" as="sourcePoint"/><mxPoint x="-605" y="60" as="targetPoint"/></mxGeometry></mxCell><mxCell id="17" value="const reducers = combineReducers ({reducers})" style="text;html=1;align=center;verticalAlign=middle;resizable=0;points=[];autosize=1;strokeColor=none;fillColor=none;fontSize=12;fontFamily=Verdana;fontColor=#000000;" vertex="1" parent="1"><mxGeometry x="-875" y="130" width="310" height="20" as="geometry"/></mxCell><mxCell id="18" value="const store = createStore (reducers,&amp;nbsp;&lt;span style=&quot;color: rgb(255 , 198 , 109) ; background-color: rgb(43 , 43 , 43) ; font-family: &amp;#34;droid sans mono&amp;#34; , monospace&quot;&gt;applyMiddleware&lt;/span&gt;&lt;span&gt;(thunk))&lt;/span&gt;" style="text;html=1;align=center;verticalAlign=middle;resizable=0;points=[];autosize=1;strokeColor=none;fillColor=none;fontSize=12;fontFamily=Verdana;fontColor=#000000;" vertex="1" parent="1"><mxGeometry x="-915" y="150" width="390" height="20" as="geometry"/></mxCell><mxCell id="21" value="&lt;b&gt;redux-thunk&lt;/b&gt;" style="text;html=1;align=center;verticalAlign=middle;resizable=0;points=[];autosize=1;strokeColor=none;fillColor=none;fontSize=12;fontFamily=Verdana;fontColor=#000000;" vertex="1" parent="1"><mxGeometry x="-590" y="20" width="100" height="20" as="geometry"/></mxCell><mxCell id="22" value="" style="endArrow=classic;html=1;rounded=0;fontFamily=Verdana;fontSize=12;fontColor=#000000;strokeColor=#000000;exitX=0.382;exitY=1.125;exitDx=0;exitDy=0;exitPerimeter=0;" edge="1" parent="1" source="21"><mxGeometry width="50" height="50" relative="1" as="geometry"><mxPoint y="40" as="sourcePoint"/><mxPoint x="-550" y="140" as="targetPoint"/></mxGeometry></mxCell><mxCell id="26" value="" style="edgeStyle=orthogonalEdgeStyle;rounded=0;orthogonalLoop=1;jettySize=auto;html=1;fontFamily=Verdana;fontSize=12;fontColor=#000000;strokeColor=#000000;" edge="1" parent="1" source="23" target="25"><mxGeometry relative="1" as="geometry"/></mxCell><mxCell id="33" value="" style="edgeStyle=orthogonalEdgeStyle;rounded=0;orthogonalLoop=1;jettySize=auto;html=1;fontFamily=Verdana;fontSize=12;fontColor=#000000;strokeColor=#000000;" edge="1" parent="1" source="23" target="30"><mxGeometry relative="1" as="geometry"/></mxCell><mxCell id="34" value="" style="edgeStyle=orthogonalEdgeStyle;rounded=0;orthogonalLoop=1;jettySize=auto;html=1;fontFamily=Verdana;fontSize=12;fontColor=#000000;strokeColor=#000000;" edge="1" parent="1" source="23" target="30"><mxGeometry relative="1" as="geometry"/></mxCell><mxCell id="23" value="{reducers}" style="text;html=1;align=center;verticalAlign=middle;resizable=0;points=[];autosize=1;strokeColor=none;fillColor=none;fontSize=12;fontFamily=Verdana;fontColor=#000000;" vertex="1" parent="1"><mxGeometry x="-695" y="250" width="80" height="20" as="geometry"/></mxCell><mxCell id="24" value="" style="endArrow=classic;html=1;rounded=0;fontFamily=Verdana;fontSize=12;fontColor=#000000;strokeColor=#000000;exitX=0.5;exitY=1;exitDx=0;exitDy=0;" edge="1" parent="1" source="13" target="23"><mxGeometry width="50" height="50" relative="1" as="geometry"><mxPoint x="-495" y="330" as="sourcePoint"/><mxPoint x="-445" y="280" as="targetPoint"/></mxGeometry></mxCell><mxCell id="38" value="" style="edgeStyle=orthogonalEdgeStyle;rounded=0;orthogonalLoop=1;jettySize=auto;html=1;fontFamily=Verdana;fontSize=12;fontColor=#000000;strokeColor=#000000;" edge="1" parent="1" source="25" target="37"><mxGeometry relative="1" as="geometry"/></mxCell><mxCell id="25" value="auth" style="text;html=1;align=center;verticalAlign=middle;resizable=0;points=[];autosize=1;strokeColor=none;fillColor=none;fontSize=12;fontFamily=Verdana;fontColor=#000000;" vertex="1" parent="1"><mxGeometry x="-875" y="300" width="40" height="20" as="geometry"/></mxCell><mxCell id="27" value="dialogs" style="text;html=1;align=center;verticalAlign=middle;resizable=0;points=[];autosize=1;strokeColor=none;fillColor=none;fontSize=12;fontFamily=Verdana;fontColor=#000000;" vertex="1" parent="1"><mxGeometry x="-815" y="300" width="60" height="20" as="geometry"/></mxCell><mxCell id="28" value="" style="endArrow=classic;html=1;rounded=0;fontFamily=Verdana;fontSize=12;fontColor=#000000;strokeColor=#000000;exitX=-0.023;exitY=0.958;exitDx=0;exitDy=0;exitPerimeter=0;" edge="1" parent="1" source="23" target="27"><mxGeometry width="50" height="50" relative="1" as="geometry"><mxPoint x="-495" y="330" as="sourcePoint"/><mxPoint x="-445" y="280" as="targetPoint"/><Array as="points"><mxPoint x="-785" y="269"/></Array></mxGeometry></mxCell><mxCell id="29" value="friends" style="text;html=1;align=center;verticalAlign=middle;resizable=0;points=[];autosize=1;strokeColor=none;fillColor=none;fontSize=12;fontFamily=Verdana;fontColor=#000000;" vertex="1" parent="1"><mxGeometry x="-750" y="300" width="60" height="20" as="geometry"/></mxCell><mxCell id="30" value="profile" style="text;html=1;align=center;verticalAlign=middle;resizable=0;points=[];autosize=1;strokeColor=none;fillColor=none;fontSize=12;fontFamily=Verdana;fontColor=#000000;" vertex="1" parent="1"><mxGeometry x="-675" y="300" width="50" height="20" as="geometry"/></mxCell><mxCell id="31" value="sidebar" style="text;html=1;align=center;verticalAlign=middle;resizable=0;points=[];autosize=1;strokeColor=none;fillColor=none;fontSize=12;fontFamily=Verdana;fontColor=#000000;" vertex="1" parent="1"><mxGeometry x="-615" y="300" width="60" height="20" as="geometry"/></mxCell><mxCell id="32" value="users" style="text;html=1;align=center;verticalAlign=middle;resizable=0;points=[];autosize=1;strokeColor=none;fillColor=none;fontSize=12;fontFamily=Verdana;fontColor=#000000;" vertex="1" parent="1"><mxGeometry x="-540" y="300" width="50" height="20" as="geometry"/></mxCell><mxCell id="35" value="" style="endArrow=classic;html=1;rounded=0;fontFamily=Verdana;fontSize=12;fontColor=#000000;strokeColor=#000000;exitX=0.79;exitY=1.125;exitDx=0;exitDy=0;exitPerimeter=0;entryX=0.442;entryY=-0.125;entryDx=0;entryDy=0;entryPerimeter=0;" edge="1" parent="1" source="23" target="31"><mxGeometry width="50" height="50" relative="1" as="geometry"><mxPoint x="-495" y="330" as="sourcePoint"/><mxPoint x="-445" y="280" as="targetPoint"/><Array as="points"><mxPoint x="-588" y="273"/></Array></mxGeometry></mxCell><mxCell id="36" value="" style="endArrow=classic;html=1;rounded=0;fontFamily=Verdana;fontSize=12;fontColor=#000000;strokeColor=#000000;entryX=0.497;entryY=-0.083;entryDx=0;entryDy=0;entryPerimeter=0;" edge="1" parent="1" target="32"><mxGeometry width="50" height="50" relative="1" as="geometry"><mxPoint x="-605" y="260" as="sourcePoint"/><mxPoint x="-445" y="280" as="targetPoint"/><Array as="points"><mxPoint x="-515" y="260"/></Array></mxGeometry></mxCell><mxCell id="40" value="" style="edgeStyle=orthogonalEdgeStyle;rounded=0;orthogonalLoop=1;jettySize=auto;html=1;fontFamily=Verdana;fontSize=12;fontColor=#000000;strokeColor=#000000;" edge="1" parent="1" source="37" target="39"><mxGeometry relative="1" as="geometry"/></mxCell><mxCell id="37" value="actions.js&lt;br&gt;SET_IS_AUTH, SET_IS_FETCHING" style="text;html=1;align=center;verticalAlign=middle;resizable=0;points=[];autosize=1;strokeColor=none;fillColor=none;fontSize=12;fontFamily=Verdana;fontColor=#000000;" vertex="1" parent="1"><mxGeometry x="-965" y="350" width="220" height="30" as="geometry"/></mxCell><mxCell id="42" value="" style="edgeStyle=orthogonalEdgeStyle;rounded=0;orthogonalLoop=1;jettySize=auto;html=1;fontFamily=Verdana;fontSize=12;fontColor=#000000;strokeColor=#000000;" edge="1" parent="1" source="39" target="41"><mxGeometry relative="1" as="geometry"/></mxCell><mxCell id="39" value="reducer.js&lt;br&gt;const reducer = (state, action) =&amp;gt; &lt;br&gt;return newState" style="text;html=1;align=center;verticalAlign=middle;resizable=0;points=[];autosize=1;strokeColor=none;fillColor=none;fontSize=12;fontFamily=Verdana;fontColor=#000000;" vertex="1" parent="1"><mxGeometry x="-970" y="400" width="230" height="50" as="geometry"/></mxCell><mxCell id="44" value="" style="edgeStyle=orthogonalEdgeStyle;rounded=0;orthogonalLoop=1;jettySize=auto;html=1;fontFamily=Verdana;fontSize=12;fontColor=#000000;strokeColor=#000000;" edge="1" parent="1" source="41" target="43"><mxGeometry relative="1" as="geometry"/></mxCell><mxCell id="41" value="types.js" style="text;html=1;align=center;verticalAlign=middle;resizable=0;points=[];autosize=1;strokeColor=none;fillColor=none;fontSize=12;fontFamily=Verdana;fontColor=#000000;" vertex="1" parent="1"><mxGeometry x="-885" y="470" width="60" height="20" as="geometry"/></mxCell><mxCell id="46" value="" style="edgeStyle=orthogonalEdgeStyle;rounded=0;orthogonalLoop=1;jettySize=auto;html=1;fontFamily=Verdana;fontSize=12;fontColor=#000000;strokeColor=#000000;" edge="1" parent="1" source="43" target="45"><mxGeometry relative="1" as="geometry"/></mxCell><mxCell id="43" value="selectors.js&lt;br&gt;const auth = state =&amp;gt; state.auth&lt;br&gt;const myID = state =&amp;gt; state.id" style="text;html=1;align=center;verticalAlign=middle;resizable=0;points=[];autosize=1;strokeColor=none;fillColor=none;fontSize=12;fontFamily=Verdana;fontColor=#000000;" vertex="1" parent="1"><mxGeometry x="-965" y="510" width="220" height="50" as="geometry"/></mxCell><mxCell id="45" value="index.js&lt;br&gt;&lt;pre style=&quot;background-color: #2b2b2b ; color: #a9b7c6 ; font-family: &amp;#34;droid sans mono&amp;#34; , monospace ; font-size: 9 8pt&quot;&gt;&lt;span style=&quot;color: #cc7832&quot;&gt;export &lt;/span&gt;{&lt;br&gt;  &lt;span style=&quot;color: #ffc66d&quot;&gt;reducer &lt;/span&gt;&lt;span style=&quot;color: #cc7832&quot;&gt;as &lt;/span&gt;authReducer&lt;span style=&quot;color: #cc7832&quot;&gt;,&lt;br&gt;&lt;/span&gt;&lt;span style=&quot;color: #cc7832&quot;&gt;  &lt;/span&gt;selectors &lt;span style=&quot;color: #cc7832&quot;&gt;as &lt;/span&gt;authSelectors&lt;span style=&quot;color: #cc7832&quot;&gt;,&lt;br&gt;&lt;/span&gt;&lt;span style=&quot;color: #cc7832&quot;&gt;  &lt;/span&gt;actions &lt;span style=&quot;color: #cc7832&quot;&gt;as &lt;/span&gt;authActions&lt;br&gt;}&lt;/pre&gt;" style="text;html=1;align=center;verticalAlign=middle;resizable=0;points=[];autosize=1;strokeColor=none;fillColor=none;fontSize=12;fontFamily=Verdana;fontColor=#000000;" vertex="1" parent="1"><mxGeometry x="-960" y="580" width="210" height="110" as="geometry"/></mxCell><mxCell id="47" value="&lt;font color=&quot;#990000&quot;&gt;Внешний &lt;br&gt;интерфейс&lt;/font&gt;" style="text;html=1;align=center;verticalAlign=middle;resizable=0;points=[];autosize=1;strokeColor=none;fillColor=none;fontSize=12;fontFamily=Verdana;fontColor=#000000;" vertex="1" parent="1"><mxGeometry x="-760" y="650" width="80" height="30" as="geometry"/></mxCell><mxCell id="50" value="actions.js&lt;br&gt;&lt;br&gt;reducer.js&lt;br&gt;&lt;br&gt;types.js&lt;br&gt;&lt;br&gt;selectors.js&lt;br&gt;&lt;br&gt;index.js" style="whiteSpace=wrap;html=1;aspect=fixed;fontFamily=Verdana;fontSize=12;fontColor=#990000;strokeColor=#000000;strokeWidth=3;fillColor=none;" vertex="1" parent="1"><mxGeometry x="-745" y="320" width="270" height="270" as="geometry"/></mxCell><mxCell id="51" value="type: TYPE" style="text;html=1;align=center;verticalAlign=middle;resizable=0;points=[];autosize=1;strokeColor=none;fillColor=none;fontSize=12;fontFamily=Verdana;fontColor=#990000;" vertex="1" parent="1"><mxGeometry x="-830" y="470" width="80" height="20" as="geometry"/></mxCell><mxCell id="52" value="" style="shape=umlActor;verticalLabelPosition=bottom;verticalAlign=top;html=1;outlineConnect=0;fontFamily=Verdana;fontSize=12;fontColor=#990000;strokeColor=#000000;strokeWidth=3;fillColor=none;" vertex="1" parent="1"><mxGeometry x="1580" y="2230" width="30" height="60" as="geometry"/></mxCell><mxCell id="55" value="Text" style="text;html=1;align=center;verticalAlign=middle;resizable=0;points=[];autosize=1;strokeColor=none;fillColor=none;fontSize=12;fontFamily=Verdana;fontColor=#990000;" vertex="1" parent="1"><mxGeometry x="1540" y="2210" width="40" height="20" as="geometry"/></mxCell></root></mxGraphModel></diagram></mxfile>